# xmcd
#
# Track frame offsets:
#	150
#	9892
#	38428
#	53589
#	75563
#	84545
#	103130
#	117650
#	127831
#	144197
#	162472
#	176073
#	185439
#	198688
#	218019
#
# Disc length: 3069 seconds
#
# Revision: 1
# Processed by: cddbd v1.4PL0 Copyright (c) Steve Scherf et al.
# Submitted via: EasyCDDAExtractor 6.0.0.1
#
DISCID=c00bfb0f
DTITLE=The Rainbow Singers - On a journey
DYEAR=1900
DGENRE=
TTITLE0=On the sunny side of the street
TTITLE1=Black coffee
TTITLE2=Freedie freeloader
TTITLE3=Georgia on my mind
TTITLE4=Let it shine
TTITLE5=It's good to know Jesus
TTITLE6=Amazing grace
TTITLE7=Sit down Sister
TTITLE8=Go down Moses
TTITLE9=Nobody knows the troubles i've seen
TTITLE10=Mele Kalikimaka
TTITLE11=Freedom
TTITLE12=This Train
TTITLE13=Afro Blue
TTITLE14=Ghost track - Go tell it on the mountains
EXTD=
EXTT0=
EXTT1=
EXTT2=
EXTT3=
EXTT4=
EXTT5=
EXTT6=
EXTT7=
EXTT8=
EXTT9=
EXTT10=
EXTT11=
EXTT12=
EXTT13=
EXTT14=
PLAYORDER=
